{"title":"Game of Thrones S04E01 1080p XVID MP3 .AVI","uid":9914158,"size":3437465190,"categoryP":"video","categoryS":"hd___tv_shows","magnet":"?xt=urn:btih:d5efb64bdc0600f30431bb6a0e84ac7d8d517924&amp;dn=Game+of+Thrones+S04E01+1080p+XVID+MP3+.AVI&amp;tr=udp%3A%2F%2Ftracker.openbittorrent.com%3A80&amp;tr=udp%3A%2F%2Fopen.demonii.com%3A1337&amp;tr=udp%3A%2F%2Ftracker.coppersurfer.tk%3A6969&amp;tr=udp%3A%2F%2Fexodus.desync.com%3A6969","seeders":3,"leechers":0,"uploader":"Danimal1q2w3","files":1,"time":1396924557,"description":"Should I upload the new one next week? Not sure if there's much of a demand for this\n\n\nVideo\nID                                       : 0\nFormat                                   : MPEG-4 Visual\nFormat profile                           : Simple@L3\nFormat settings, BVOP                    : No\nFormat settings, QPel                    : No\nFormat settings, GMC                     : No warppoints\nFormat settings, Matrix                  : Default (H.263)\nCodec ID                                 : XVID\nCodec ID/Hint                            : XviD\nDuration                                 : 1h 0mn\nBit rate                                 : 7 304 Kbps\nWidth                                    : 1 920 pixels\nHeight                                   : 1 080 pixels\nDisplay aspect ratio                     : 16:9\nOriginal display aspect ratio            : 16:9\nFrame rate                               : 23.976 fps\nColor space                              : YUV\nChroma subsampling                       : 4:2:0\nBit depth                                : 8 bits\nScan type                                : Progressive\nCompression mode                         : Lossy\nBits/(Pixel*Frame)                       : 0.147\nStream size                              : 3.07 GiB (96%)\nWriting library                          : XviD 63\n\nAudio\nID                                       : 1\nFormat                                   : MPEG Audio\nFormat version                           : Version 1\nFormat profile                           : Layer 3\nMode                                     : Joint stereo\nMode extension                           : MS Stereo\nCodec ID                                 : 55\nCodec ID/Hint                            : MP3\nDuration                                 : 1h 0mn\nBit rate mode                            : Variable\nBit rate                                 : 309 Kbps\nChannel(s)                               : 2 channels\nSampling rate                            : 48.0 KHz\nCompression mode                         : Lossy\nStream size                              : 133 MiB (4%)\nAlignment                                : Aligned on interleaves\nInterleave, duration                     : 24 ms (0.58 video frame)\nInterleave, preload duration             : 507 ms\n","torrent":{"xt":"urn:btih:d5efb64bdc0600f30431bb6a0e84ac7d8d517924","amp;dn":"Game+of+Thrones+S04E01+1080p+XVID+MP3+.AVI","amp;tr":["udp%3A%2F%2Ftracker.openbittorrent.com%3A80","udp%3A%2F%2Fopen.demonii.com%3A1337","udp%3A%2F%2Ftracker.coppersurfer.tk%3A6969","udp%3A%2F%2Fexodus.desync.com%3A6969"],"infoHash":"d5efb64bdc0600f30431bb6a0e84ac7d8d517924","infoHashBuffer":{"type":"Buffer","data":[213,239,182,75,220,6,0,243,4,49,187,106,14,132,172,125,141,81,121,36]},"announce":[],"urlList":[]}}